<?xml version="1.0" encoding="UTF-8" standalone="no"?>
<svg
   xmlns:dc="http://purl.org/dc/elements/1.1/"
   xmlns:cc="http://creativecommons.org/ns#"
   xmlns:rdf="http://www.w3.org/1999/02/22-rdf-syntax-ns#"
   xmlns:svg="http://www.w3.org/2000/svg"
   xmlns="http://www.w3.org/2000/svg"
   xmlns:sodipodi="http://sodipodi.sourceforge.net/DTD/sodipodi-0.dtd"
   xmlns:inkscape="http://www.inkscape.org/namespaces/inkscape"
   version="1.1"
   id="svg2"
   xml:space="preserve"
   width="2133.3333"
   height="1600"
   viewBox="0 0 2133.3333 1600"
   sodipodi:docname="asideBG.svg"
   inkscape:version="1.0.2 (e86c870879, 2021-01-15, custom)"><metadata
     id="metadata8"><rdf:RDF><cc:Work
         rdf:about=""><dc:format>image/svg+xml</dc:format><dc:type
           rdf:resource="http://purl.org/dc/dcmitype/StillImage" /><dc:title></dc:title></cc:Work></rdf:RDF></metadata><defs
     id="defs6"><clipPath
       clipPathUnits="userSpaceOnUse"
       id="clipPath18"><path
         d="M 0,1200 H 1600 V 0 H 0 Z"
         id="path16" /></clipPath><clipPath
       clipPathUnits="userSpaceOnUse"
       id="clipPath26"><path
         d="M 1600,-1325 H 0 v 1201 h 1600 z"
         id="path24" /></clipPath><clipPath
       clipPathUnits="userSpaceOnUse"
       id="clipPath78"><path
         d="M -129,-1325 H -1729 V -124 H -129 Z"
         id="path76" /></clipPath><clipPath
       clipPathUnits="userSpaceOnUse"
       id="clipPath92"><path
         d="M 0,0 H 1600 V 1200 H 0 Z"
         id="path90" /></clipPath></defs><sodipodi:namedview
     pagecolor="#ffffff"
     bordercolor="#666666"
     borderopacity="1"
     objecttolerance="10"
     gridtolerance="10"
     guidetolerance="10"
     inkscape:pageopacity="0"
     inkscape:pageshadow="2"
     inkscape:window-width="1920"
     inkscape:window-height="1051"
     id="namedview4"
     showgrid="false"
     inkscape:zoom="0.46839806"
     inkscape:cx="955.92266"
     inkscape:cy="921.90314"
     inkscape:window-x="0"
     inkscape:window-y="0"
     inkscape:window-maximized="1"
     inkscape:current-layer="g10" /><g
     id="g10"
     inkscape:groupmode="layer"
     inkscape:label="for Illustrator"
     transform="matrix(1.3333333,0,0,-1.3333333,0,1600)"><g
       id="g12"><g
         id="g14"
         clip-path="url(#clipPath18)"><g
           id="g20"><g
             id="g22"
             clip-path="url(#clipPath26)"><g
               id="g28"
               transform="translate(-112.0898,-55.4106)" /><g
               id="g32"
               transform="translate(-37.5391,-19.8975)" /><g
               id="g36"
               transform="translate(72.5508,-31.4287)" /><g
               id="g40"
               transform="translate(202.3076,-2.0498)" /><g
               id="g44"
               transform="translate(333.9971,95.5288)" /><g
               id="g48"
               transform="translate(1119.4414,314.6382)" /><g
               id="g52"
               transform="translate(1007.7441,294.9834)" /><g
               id="g56"
               transform="translate(886.1035,247.7227)" /><g
               id="g60"
               transform="translate(757.6758,222.0518)" /><g
               id="g64"
               transform="translate(603.6631,236.5132)" /><g
               id="g68"
               transform="translate(674.2334,-161.7905)" /></g></g><g
           id="g72"><g
             id="g74"
             clip-path="url(#clipPath78)"><g
               id="g80"
               transform="translate(-330.708,-275.0156)" /></g></g></g></g><g
       id="g88"
       clip-path="url(#clipPath92)"><g
         id="g94"
         transform="translate(1600,307)"><path
           d="M 0,0 C 0,-32.033 -25.743,-58 -57.5,-58 -89.257,-58 -115,-32.033 -115,0"
           style="fill:none;stroke:#00ad96;stroke-width:13;stroke-linecap:round;stroke-linejoin:round;stroke-miterlimit:4;stroke-dasharray:none;stroke-opacity:1"
           id="path96" /></g><g
         id="g98"
         transform="translate(1600,1151)"><path
           d="m 0,0 c -39.768,0 -72,32.459 -72,72.5 0,40.041 32.232,72.5 72,72.5"
           style="fill:none;stroke:#ff3555;stroke-width:13;stroke-linecap:round;stroke-linejoin:round;stroke-miterlimit:4;stroke-dasharray:none;stroke-opacity:1"
           id="path100" /></g><g
         id="g102"
         transform="translate(562,1237.0938)"><path
           d="m 0,0 c 0,-33.188 26.863,-60.094 60,-60.094 33.137,0 60,26.906 60,60.094 v 67.906"
           style="fill:none;stroke:#00ad96;stroke-width:13;stroke-linecap:round;stroke-linejoin:round;stroke-miterlimit:4;stroke-dasharray:none;stroke-opacity:1"
           id="path104" /></g><g
         id="g106"
         transform="translate(137.2354,-106)" /><g
         id="g110"
         transform="translate(128.9805,-14)" /><g
         id="g114"
         transform="translate(1600,844)"><path
           d="M 0,0 V 168.319 C 0,201.28 -26.868,228 -60,228 c -33.132,0 -60,-26.72 -60,-59.681 v -26.053"
           style="fill:none;stroke:#f57846;stroke-width:13;stroke-linecap:round;stroke-linejoin:round;stroke-miterlimit:4;stroke-dasharray:none;stroke-opacity:1"
           id="path116" /></g><g
         id="g118"
         transform="translate(389.7617,718)" /><g
         id="g122"
         transform="translate(588,953)"><path
           d="m 0,0 c 22.092,0 40,-17.909 40,-40 0,-22.091 -17.908,-40 -40,-40 -22.092,0 -40,17.909 -40,40 0,22.091 17.908,40 40,40 z"
           style="fill:none;stroke:#00ad96;stroke-width:13;stroke-linecap:round;stroke-linejoin:round;stroke-miterlimit:4;stroke-dasharray:none;stroke-opacity:1"
           id="path124" /></g><g
         id="g126"
         transform="translate(698,168)" /><g
         id="g134"
         transform="translate(184.5,912)" /><g
         id="g138"
         transform="translate(1311.21,81.5425)"><path
           d="m 0,0 c -21.346,-79.814 24.832,-161.555 103.137,-182.581 78.304,-21.013 159.096,26.649 180.443,106.464 21.346,79.814 -24.832,161.552 -103.137,182.575"
           style="fill:none;stroke:#00ad96;stroke-width:13;stroke-linecap:round;stroke-linejoin:round;stroke-miterlimit:4;stroke-dasharray:none;stroke-opacity:1"
           id="path140" /></g><g
         id="g142"
         transform="translate(587,431)" /><g
         id="g146"
         transform="translate(328.5,892)"><path
           d="m 0,0 c -31.757,0 -57.5,-25.743 -57.5,-57.5 0,-31.757 25.743,-57.5 57.5,-57.5 31.757,0 57.5,25.743 57.5,57.5 V 0"
           style="fill:none;stroke:#00ad96;stroke-width:13;stroke-linecap:round;stroke-linejoin:round;stroke-miterlimit:4;stroke-dasharray:none;stroke-opacity:1"
           id="path148" /></g><g
         id="g150"
         transform="translate(346,1228.5)"><path
           d="m 0,0 c 0,-42.25 34.026,-76.5 76,-76.5 41.974,0 76,34.25 76,76.5 0,42.25 -34.026,76.5 -76,76.5 H 0"
           style="fill:none;stroke:#ff3555;stroke-width:13;stroke-linecap:round;stroke-linejoin:round;stroke-miterlimit:4;stroke-dasharray:none;stroke-opacity:1"
           id="path152" /></g><g
         id="g154"
         transform="translate(71.5,439.4175)" /><g
         id="g158"
         transform="translate(1461.9883,436)"><path
           d="m 0,0 c 0,-33.689 26.871,-61 60.012,-61 33.14,0 60,27.311 60,61 0,33.689 -26.86,61 -60,61 h -201"
           style="fill:none;stroke:#00ad96;stroke-width:13;stroke-linecap:round;stroke-linejoin:round;stroke-miterlimit:4;stroke-dasharray:none;stroke-opacity:1"
           id="path160" /></g><g
         id="g162"
         transform="translate(966,1166.209)"><path
           d="m 0,0 c -35.346,0 -64,-28.252 -64,-63.104 0,-34.853 28.654,-63.105 64,-63.105 35.346,0 64,28.252 64,63.105 v 202.895"
           style="fill:none;stroke:#0085ae;stroke-width:13;stroke-linecap:round;stroke-linejoin:round;stroke-miterlimit:4;stroke-dasharray:none;stroke-opacity:1"
           id="path164" /></g><g
         id="g166"
         transform="translate(914.9189,-48)"><path
           d="m 0,0 c 0,32.033 25.763,58 57.54,58 31.779,0 57.541,-25.967 57.541,-58 0,-32.033 -25.762,-58 -57.541,-58 h -91.459"
           style="fill:none;stroke:#00ad96;stroke-width:13;stroke-linecap:round;stroke-linejoin:round;stroke-miterlimit:4;stroke-dasharray:none;stroke-opacity:1"
           id="path168" /></g><g
         id="g170"
         transform="translate(1089.5,743.4224)"><path
           d="m 0,0 c 31.757,0 57.5,-25.614 57.5,-57.211 0,-31.598 -25.743,-57.211 -57.5,-57.211 -31.757,0 -57.5,25.613 -57.5,57.211 v 213.789"
           style="fill:none;stroke:#f57846;stroke-width:13;stroke-linecap:round;stroke-linejoin:round;stroke-miterlimit:4;stroke-dasharray:none;stroke-opacity:1"
           id="path172" /></g><g
         id="g178"
         transform="translate(688.7041,912)"><path
           d="m 0,0 c 0,56.885 -45.378,103 -101.353,103 -55.974,0 -101.351,-46.115 -101.351,-103 0,-56.885 45.377,-103 101.351,-103 h 265.649"
           style="fill:none;stroke:#ffb200;stroke-width:13;stroke-linecap:round;stroke-linejoin:round;stroke-miterlimit:4;stroke-dasharray:none;stroke-opacity:1"
           id="path180" /></g><g
         id="g182"
         transform="translate(1498.6436,579)"><path
           d="M 0,0 C 55.985,0 101.356,46.115 101.356,103 101.356,159.885 55.985,206 0,206 h -265.644"
           style="fill:none;stroke:#00ad96;stroke-width:13;stroke-linecap:round;stroke-linejoin:round;stroke-miterlimit:4;stroke-dasharray:none;stroke-opacity:1"
           id="path184" /></g><g
         id="g186"
         transform="translate(1107,1130.5)"><path
           d="m 0,0 c 0,53.296 42.739,96.5 95.462,96.5 h 98.076 C 246.265,96.5 289,53.296 289,0 289,-53.296 246.265,-96.5 193.538,-96.5 H 95.462 C 42.739,-96.5 0,-53.296 0,0 Z"
           style="fill:none;stroke:#f57846;stroke-width:13;stroke-linecap:round;stroke-linejoin:round;stroke-miterlimit:4;stroke-dasharray:none;stroke-opacity:1"
           id="path188" /></g><g
         id="g190"
         transform="translate(266.5,435)" /><g
         id="g194"
         transform="translate(828,510.5)"><path
           d="M 0,0 V 89.334 C 0,114.831 20.818,135.5 46.5,135.5 72.182,135.5 93,114.831 93,89.334 V -89.334 C 93,-114.831 72.182,-135.5 46.5,-135.5 20.818,-135.5 0,-114.831 0,-89.334 v 21.584"
           style="fill:none;stroke:#ff3555;stroke-width:13;stroke-linecap:round;stroke-linejoin:round;stroke-miterlimit:4;stroke-dasharray:none;stroke-opacity:1"
           id="path196" /></g><g
         id="g198"
         transform="translate(914,988.0693)"><path
           d="m 0,0 v -7.788 c 0,-44.338 -36.041,-80.281 -80.5,-80.281 -44.459,0 -80.5,35.943 -80.5,80.281 v 244.437 c 0,44.339 36.041,80.282 80.5,80.282 44.459,0 80.5,-35.943 80.5,-80.282 v -2.396"
           style="fill:none;stroke:#ffb200;stroke-width:13;stroke-linecap:round;stroke-linejoin:round;stroke-miterlimit:4;stroke-dasharray:none;stroke-opacity:1"
           id="path200" /></g><g
         id="g202"
         transform="translate(71.75,354)" /><g
         id="g206"
         transform="translate(751,646)"><path
           d="M 0,0 V -231.637 C 0,-300.873 56.636,-357 126.5,-357 c 69.864,0 126.5,56.127 126.5,125.363 v 54.728"
           style="fill:none;stroke:#00ad96;stroke-width:13;stroke-linecap:round;stroke-linejoin:round;stroke-miterlimit:4;stroke-dasharray:none;stroke-opacity:1"
           id="path208" /></g><g
         id="g210"
         transform="translate(497,254)" /><g
         id="g214"
         transform="translate(586,605)"><path
           d="M 0,0 H -49.187 C -82.221,0 -109,26.863 -109,60 c 0,33.137 26.779,60 59.813,60 H 49.187 C 82.221,120 109,93.137 109,60 V 54.669 C 109,24.477 84.6,0 54.5,0"
           style="fill:none;stroke:#0085ae;stroke-width:13;stroke-linecap:round;stroke-linejoin:round;stroke-miterlimit:4;stroke-dasharray:none;stroke-opacity:1"
           id="path216" /></g><g
         id="g218"
         transform="translate(1089.5,834)"><path
           d="M 0,0 H 56.182 C 93.91,0 124.5,28.878 124.5,64.5 124.5,100.122 93.91,129 56.182,129 H -56.182 C -93.913,129 -124.5,100.122 -124.5,64.5"
           style="fill:none;stroke:#00ad96;stroke-width:13;stroke-linecap:round;stroke-linejoin:round;stroke-miterlimit:4;stroke-dasharray:none;stroke-opacity:1"
           id="path220" /></g><g
         id="g222"
         transform="translate(675,1103)"><path
           d="M 0,0 H -134.682 C -219.909,0 -289,-69.396 -289,-155"
           style="fill:none;stroke:#00ad96;stroke-width:13;stroke-linecap:round;stroke-linejoin:round;stroke-miterlimit:4;stroke-dasharray:none;stroke-opacity:1"
           id="path224" /></g><g
         id="g226"
         transform="translate(1449.5,99.1597)"><path
           d="m 0,0 c 31.757,0 57.5,-25.56 57.5,-57.08 0,-31.52 -25.743,-57.08 -57.5,-57.08 -31.757,0 -57.5,25.56 -57.5,57.08 v 371.92"
           style="fill:none;stroke:#ff3555;stroke-width:13;stroke-linecap:round;stroke-linejoin:round;stroke-miterlimit:4;stroke-dasharray:none;stroke-opacity:1"
           id="path228" /></g><g
         id="g230"
         transform="translate(1019,62)"><path
           d="M 0,0 C 0,58.541 46.847,106 104.635,106 H 289"
           style="fill:none;stroke:#00ad96;stroke-width:13;stroke-linecap:round;stroke-linejoin:round;stroke-miterlimit:4;stroke-dasharray:none;stroke-opacity:1"
           id="path232" /></g><g
         id="g234"
         transform="translate(747,725)"><path
           d="M 0,0 H 98.373 C 164.441,0 218,53.727 218,120"
           style="fill:none;stroke:#0085ae;stroke-width:13;stroke-linecap:round;stroke-linejoin:round;stroke-miterlimit:4;stroke-dasharray:none;stroke-opacity:1"
           id="path236" /></g><g
         id="g238"
         transform="translate(1321,412)"><path
           d="M 0,0 V -53.755 C 0,-108.014 -44.002,-152 -98.288,-152 H -175"
           style="fill:none;stroke:#0085ae;stroke-width:13;stroke-linecap:round;stroke-linejoin:round;stroke-miterlimit:4;stroke-dasharray:none;stroke-opacity:1"
           id="path240" /></g><g
         id="g242"
         transform="translate(1507,680)"><path
           d="M 0,0 H -84.007 C -144.758,0 -194,-49.697 -194,-111"
           style="fill:none;stroke:#f57846;stroke-width:13;stroke-linecap:round;stroke-linejoin:round;stroke-miterlimit:4;stroke-dasharray:none;stroke-opacity:1"
           id="path244" /></g><g
         id="g246"
         transform="translate(218,-106)" /><g
         id="g250"
         transform="translate(44.5,980)" /><g
         id="g254"
         transform="translate(1088.5,557)"><path
           d="M 0,0 V -152"
           style="fill:none;stroke:#00ad96;stroke-width:13;stroke-linecap:round;stroke-linejoin:round;stroke-miterlimit:4;stroke-dasharray:none;stroke-opacity:1"
           id="path256" /></g><g
         id="g258"
         transform="translate(934.5,144)"><path
           d="M 0,0 V -62"
           style="fill:none;stroke:#00ad96;stroke-width:13;stroke-linecap:round;stroke-linejoin:round;stroke-miterlimit:4;stroke-dasharray:none;stroke-opacity:1"
           id="path260" /></g><g
         id="g262"
         transform="translate(954,214)"><path
           d="m 0,0 h 26.776 c 55.33,0 100.185,44.799 100.185,100.062 M 279,505 V 362.669 c 0,-22.395 -18.295,-40.535 -40.865,-40.535 -22.57,0 -40.864,-18.155 -40.864,-40.551 v -8.411 c 0,-22.395 18.294,-40.551 40.864,-40.551 22.57,0 40.865,-18.155 40.865,-40.552 v -9.311 c 0,-27.539 -22.497,-49.863 -50.248,-49.863 h -26.033 -38.141"
           style="fill:none;stroke:#ffb200;stroke-width:13;stroke-linecap:round;stroke-linejoin:round;stroke-miterlimit:4;stroke-dasharray:none;stroke-opacity:1"
           id="path264" /></g><g
         id="g266"
         transform="translate(1481,916.0791)"><path
           d="m 0,0 v -20.282 c 0,-28.607 -23.264,-51.797 -51.942,-51.797 -28.692,0 -51.955,23.19 -51.955,51.797 v 16.8 c 0,28.389 -23.083,51.403 -51.545,51.403 -28.475,0 -51.558,-23.014 -51.558,-51.403 v -20.676"
           style="fill:none;stroke:#ff3555;stroke-width:13;stroke-linecap:round;stroke-linejoin:round;stroke-miterlimit:4;stroke-dasharray:none;stroke-opacity:1"
           id="path268" /></g><g
         id="g270"
         transform="translate(1089,20.0332)"><path
           d="m 0,0 c 0,40.295 32.684,72.967 73,72.967 40.313,0 73,-32.672 73,-72.967 v -53.066 c 0,-40.295 -32.687,-72.967 -73,-72.967 -40.316,0 -73,32.672 -73,72.967 z"
           style="fill:none;stroke:#0085ae;stroke-width:13;stroke-linecap:round;stroke-linejoin:round;stroke-miterlimit:4;stroke-dasharray:none;stroke-opacity:1"
           id="path272" /></g></g></g></svg>
