<?xml version="1.0" encoding="UTF-8" standalone="no"?>
<svg
   xmlns:dc="http://purl.org/dc/elements/1.1/"
   xmlns:cc="http://creativecommons.org/ns#"
   xmlns:rdf="http://www.w3.org/1999/02/22-rdf-syntax-ns#"
   xmlns:svg="http://www.w3.org/2000/svg"
   xmlns="http://www.w3.org/2000/svg"
   xmlns:sodipodi="http://sodipodi.sourceforge.net/DTD/sodipodi-0.dtd"
   xmlns:inkscape="http://www.inkscape.org/namespaces/inkscape"
   version="1.1"
   id="svg2"
   xml:space="preserve"
   width="1333.3333"
   height="1333.3333"
   viewBox="0 0 1333.3333 1333.3333"
   sodipodi:docname="logo.svg"
   inkscape:version="1.0.2 (e86c870879, 2021-01-15, custom)"><metadata
     id="metadata8"><rdf:RDF><cc:Work
         rdf:about=""><dc:format>image/svg+xml</dc:format><dc:type
           rdf:resource="http://purl.org/dc/dcmitype/StillImage" /><dc:title></dc:title></cc:Work></rdf:RDF></metadata><defs
     id="defs6"><clipPath
       clipPathUnits="userSpaceOnUse"
       id="clipPath18"><path
         d="M 0,1000 H 1000 V 0 H 0 Z"
         id="path16" /></clipPath></defs><sodipodi:namedview
     pagecolor="#ffffff"
     bordercolor="#666666"
     borderopacity="1"
     objecttolerance="10"
     gridtolerance="10"
     guidetolerance="10"
     inkscape:pageopacity="0"
     inkscape:pageshadow="2"
     inkscape:window-width="1920"
     inkscape:window-height="1051"
     id="namedview4"
     showgrid="false"
     inkscape:zoom="0.57750004"
     inkscape:cx="351.51513"
     inkscape:cy="666.66663"
     inkscape:window-x="0"
     inkscape:window-y="0"
     inkscape:window-maximized="1"
     inkscape:current-layer="g10" /><g
     id="g10"
     inkscape:groupmode="layer"
     inkscape:label="Logo53"
     transform="matrix(1.3333333,0,0,-1.3333333,0,1333.3333)"><g
       id="g12"
       style="fill:#08003c;fill-opacity:1"><g
         id="g14"
         clip-path="url(#clipPath18)"
         style="fill:#08003c;fill-opacity:1"><g
           id="g20"
           transform="translate(680.6162,402.0947)"
           style="fill:#08003c;fill-opacity:1"><path
             d="m 0,0 c -2.909,-1.679 -4.701,-4.783 -4.701,-8.143 v -55.043 l -42.967,24.808 V 78.868 c 7.013,3.478 11.855,10.694 11.855,19.037 0,11.723 -9.536,21.259 -21.258,21.259 -11.722,0 -21.258,-9.536 -21.258,-21.259 0,-8.343 4.843,-15.559 11.855,-19.037 V -43.807 c 0,-3.36 1.792,-6.464 4.702,-8.142 l 47.852,-27.628 -104.861,-62.148 -52.433,31.877 V 11.235 l 42.968,-24.806 v -46.863 c -7.013,-3.478 -11.856,-10.693 -11.856,-19.038 0,-11.722 9.537,-21.257 21.259,-21.257 11.722,0 21.258,9.535 21.258,21.257 0,8.345 -4.843,15.56 -11.855,19.038 v 52.291 c 0,3.36 -1.792,6.464 -4.702,8.143 l -57.072,32.95 v 274.459 l 52.371,30.237 42.654,-24.627 -31.151,-17.208 c -3.32,2.147 -7.264,3.407 -11.503,3.407 -11.722,0 -21.259,-9.536 -21.259,-21.257 0,-11.723 9.537,-21.258 21.259,-21.258 11.722,0 21.258,9.535 21.258,21.258 0,0.576 -0.041,1.142 -0.086,1.706 l 40.498,22.373 52.472,-30.295 V 222.13 l -47.668,27.521 c -2.909,1.681 -6.494,1.681 -9.403,0 l -61.773,-35.664 c -2.909,-1.679 -4.701,-4.783 -4.701,-8.142 V 82.224 c -7.013,-3.478 -11.856,-10.694 -11.856,-19.037 0,-11.723 9.537,-21.259 21.259,-21.259 11.722,0 21.258,9.536 21.258,21.259 0,8.343 -4.843,15.559 -11.855,19.037 V 200.416 L -57.071,230.652 -0.013,197.709 0,197.701 57.072,164.751 V 104.28 L 14.104,79.473 v 55.043 c 0,3.359 -1.791,6.463 -4.701,8.142 l -45.285,26.146 c 0.029,0.457 0.069,0.911 0.069,1.376 0,11.722 -9.536,21.258 -21.258,21.258 -11.722,0 -21.258,-9.536 -21.258,-21.258 0,-11.722 9.536,-21.259 21.258,-21.259 4.364,0 8.422,1.325 11.8,3.589 l 40.57,-23.424 V 63.187 c 0,-3.36 1.792,-6.463 4.701,-8.143 1.454,-0.84 3.077,-1.26 4.701,-1.26 1.623,0 3.247,0.42 4.702,1.259 L 57.072,82.564 V 32.951 Z m -242.451,-141.725 -104.862,62.148 47.853,27.627 c 2.91,1.679 4.701,4.783 4.701,8.143 V 78.868 c 7.012,3.478 11.856,10.694 11.856,19.037 0,11.723 -9.536,21.259 -21.259,21.259 -11.722,0 -21.258,-9.536 -21.258,-21.259 0,-8.343 4.843,-15.559 11.856,-19.037 V -38.378 l -42.968,-24.807 v 55.042 c 0,3.36 -1.792,6.464 -4.702,8.143 l -57.071,32.951 v 49.614 l 47.669,-27.521 c 1.454,-0.84 3.078,-1.26 4.701,-1.26 1.623,0 3.247,0.42 4.701,1.26 2.91,1.68 4.702,4.783 4.702,8.143 v 65.899 l 40.571,23.424 c 3.378,-2.264 7.436,-3.589 11.799,-3.589 11.723,0 21.259,9.537 21.259,21.259 0,11.722 -9.536,21.258 -21.259,21.258 -11.722,0 -21.258,-9.536 -21.258,-21.258 0,-0.464 0.04,-0.918 0.069,-1.375 l -45.285,-26.146 c -2.91,-1.68 -4.702,-4.784 -4.702,-8.143 V 79.473 l -42.967,24.806 v 60.472 l 57.071,32.95 57.072,32.951 52.37,-30.236 V 82.224 c -7.012,-3.478 -11.855,-10.694 -11.855,-19.037 0,-11.723 9.535,-21.259 21.258,-21.259 11.722,0 21.258,9.536 21.258,21.259 0,8.343 -4.843,15.559 -11.855,19.037 v 123.621 c 0,3.359 -1.792,6.463 -4.702,8.142 l -61.772,35.664 c -2.908,1.68 -6.493,1.68 -9.403,0.002 l -47.669,-27.523 v 49.615 l 52.472,30.295 40.499,-22.373 c -0.045,-0.564 -0.086,-1.13 -0.086,-1.706 0,-11.723 9.535,-21.258 21.258,-21.258 11.722,0 21.258,9.535 21.258,21.258 0,11.721 -9.536,21.257 -21.258,21.257 -4.239,0 -8.183,-1.26 -11.503,-3.407 l -31.151,17.208 42.654,24.627 52.369,-30.237 V 32.95 L -247.09,0 c -2.91,-1.679 -4.702,-4.783 -4.702,-8.143 v -52.291 c -7.012,-3.478 -11.855,-10.693 -11.855,-19.038 0,-11.722 9.535,-21.257 21.258,-21.257 11.722,0 21.258,9.535 21.258,21.257 0,8.345 -4.843,15.56 -11.855,19.038 v 46.863 l 42.966,24.807 V -109.848 Z M 71.177,178.324 14.104,211.273 v 65.9 c 0,3.36 -1.791,6.464 -4.701,8.143 l -123.545,71.329 c -2.909,1.68 -6.494,1.68 -9.403,0 l -57.073,-32.95 -57.07,32.95 c -2.908,1.68 -6.494,1.68 -9.402,0 l -123.546,-71.329 c -2.91,-1.679 -4.702,-4.783 -4.702,-8.143 v -65.9 l -57.071,-32.95 c -2.909,-1.68 -4.701,-4.783 -4.701,-8.143 V 27.522 c 0,-3.36 1.792,-6.463 4.701,-8.142 l 57.071,-32.951 v -65.901 c 0,-3.32 1.752,-6.395 4.609,-8.088 l 123.545,-73.22 c 1.48,-0.877 3.138,-1.315 4.795,-1.315 1.693,0 3.385,0.457 4.885,1.368 l 56.887,34.586 56.888,-34.586 c 1.5,-0.911 3.193,-1.368 4.886,-1.368 1.657,0 3.316,0.438 4.794,1.315 L 9.496,-87.56 c 2.857,1.693 4.608,4.768 4.608,8.088 v 65.901 l 57.073,32.95 c 2.909,1.68 4.701,4.783 4.701,8.143 V 170.18 c 0,3.36 -1.792,6.463 -4.701,8.144"
             style="fill:#08003c;fill-opacity:1;fill-rule:nonzero;stroke:none"
             id="path22" /></g></g></g></g></svg>
